<?xml version="1.0" standalone="no"?>
<!DOCTYPE svg PUBLIC "-//W3C//DTD SVG 20010904//EN"
 "http://www.w3.org/TR/2001/REC-SVG-20010904/DTD/svg10.dtd">
<svg version="1.0" xmlns="http://www.w3.org/2000/svg"
 width="240.000000pt" height="240.000000pt" viewBox="0 0 240.000000 240.000000"
 preserveAspectRatio="xMidYMid meet">
<metadata>
Created by potrace 1.11, written by Peter Selinger 2001-2013
</metadata>
<g transform="translate(0.000000,240.000000) scale(0.100000,-0.100000)"
fill="#000000" stroke="none">
<path d="M1080 2364 c-14 -2 -56 -9 -95 -15 -358 -57 -681 -302 -846 -641 -83
-169 -119 -327 -119 -524 0 -437 233 -832 614 -1038 161 -89 382 -146 557
-146 266 0 573 115 775 290 58 50 155 162 202 233 263 388 270 908 18 1302
-37 57 -151 199 -178 220 -7 6 -38 31 -68 56 -142 120 -318 204 -510 244 -73
16 -300 28 -350 19z m-90 -717 l65 -13 -1 -34 c-1 -19 -9 -89 -18 -155 -29
-214 -17 -448 28 -533 8 -15 27 -39 43 -54 56 -53 132 -69 363 -77 l185 -6 0
-95 0 -95 -170 -3 c-425 -7 -593 86 -651 360 -24 111 -21 367 5 548 12 79 27
150 33 157 13 16 34 16 118 0z"/>
</g>
</svg>
